<?xml version="1.0" encoding="UTF-8"?>
<svg id="Layer_1" data-name="Layer 1" xmlns="http://www.w3.org/2000/svg" viewBox="0 0 149.53 105.2">
  <defs>
    <style>
      .cls-1 {
        fill: #231f20;
      }
    </style>
  </defs>
  <path class="cls-1" d="m22.78,105.2c-12.56,0-22.78-10.22-22.78-22.78h2.95c0,10.93,8.89,19.83,19.83,19.83s19.83-8.89,19.83-19.83h2.95c0,12.56-10.22,22.78-22.78,22.78Z"/>
  <rect class="cls-1" x="42.61" y="16.36" width="2.95" height="66.74"/>
  <path class="cls-1" d="m91.53,40.64h-25.69v-3.2h28.76v.12c0,1.7-1.38,3.07-3.07,3.07Z"/>
  <path class="cls-1" d="m87.03,49.73c-4.02,4.93-10.39,7.87-17.39,7.06-8.89-1.02-16.07-8.22-17.06-17.12-1.31-11.73,7.88-21.71,19.36-21.71,10.74,0,19.48,8.74,19.48,19.48h3.2c0-12.91-10.85-23.34-23.91-22.64-11.44.61-20.8,9.98-21.41,21.41-.69,13.06,9.73,23.91,22.65,23.91,7.76,0,14.62-3.93,18.7-9.9.14-.21-.01-.49-.26-.49h-3.34Z"/>
  <path class="cls-1" d="m135.69,49.73c-4.02,4.93-10.39,7.87-17.39,7.06-8.89-1.02-16.07-8.22-17.06-17.12-1.31-11.73,7.88-21.71,19.36-21.71,10.74,0,19.48,8.74,19.48,19.48h3.2c0-12.91-10.85-23.34-23.91-22.64-11.44.61-20.8,9.98-21.41,21.41-.69,13.06,9.73,23.91,22.65,23.91,7.76,0,14.62-3.93,18.7-9.9.14-.21-.01-.49-.26-.49h-3.34Z"/>
  <circle class="cls-1" cx="44.09" cy="2.95" r="2.95"/>
  <circle class="cls-1" cx="148.05" cy="58.12" r="1.48"/>
</svg>